<svg width="1316" height="334" viewBox="0 0 1316 334" fill="none" xmlns="http://www.w3.org/2000/svg">
<path d="M1 54C1 24.7289 24.7289 1 54 1H1262C1291.27 1 1315 24.7289 1315 54V82.7182C1315 111.989 1291.27 135.718 1262 135.718H54C24.7289 135.718 1 111.989 1 82.7181V54ZM1 251.282C1 222.011 24.7289 198.282 54 198.282H1262C1291.27 198.282 1315 222.011 1315 251.282V280C1315 309.271 1291.27 333 1262 333H54C24.7289 333 1 309.271 1 280V251.282Z" fill="#D6E5CF" fill-opacity="0.99" stroke="#B6C5AF" stroke-width="2"/>
</svg>
